Coordinates
version=1
nRows=29
nColumns=38
inDegrees=no

Units are S.I. units (second, meters, Newtons, ...)
If the header above contains a line with 'inDegrees', this indicates whether rotational values are in degrees (yes) or radians (no).

endheader
time	pelvis_tilt	pelvis_list	pelvis_rotation	pelvis_tx	pelvis_ty	pelvis_tz	hip_flexion_r	hip_adduction_r	hip_rotation_r	knee_angle_r	ankle_angle_r	subtalar_angle_r	mtp_angle_r	hip_flexion_l	hip_adduction_l	hip_rotation_l	knee_angle_l	ankle_angle_l	subtalar_angle_l	mtp_angle_l	lumbar_extension	lumbar_bending	lumbar_rotation	arm_flex_r	arm_add_r	arm_rot_r	elbow_flex_r	pro_sup_r	wrist_flex_r	wrist_dev_r	arm_flex_l	arm_add_l	arm_rot_l	elbow_flex_l	pro_sup_l	wrist_flex_l	wrist_dev_l
2.05	-0.032405	-0.00693795	0.153533	0.837886	0.988169	-0.331619	0.590774	-0.0106338	-0.272764	-0.219745	0.0943728	0.0256835	-4.45709e-05	-0.172576	-0.13977	-0.149639	-1.29932	-0.468076	0.00136458	-9.88808e-05	-0.25236	0.0664766	-0.181293	-0.911446	-0.348666	-0.202008	1.74307	1.57666	0.0998652	0.0738132	-0.0320262	-0.558651	0.127776	2.26025	2.09038	0.0997978	-0.0973566
2.06	-0.0188114	-0.021884	0.134992	0.838961	0.981431	-0.329775	0.569758	0.0182545	-0.26723	-0.287838	0.0562956	0.0256835	-4.45709e-05	-0.151606	-0.169712	-0.162836	-1.44572	-0.444329	0.00136458	-9.88808e-05	-0.262122	0.0807682	-0.142752	-0.888358	-0.374646	-0.20078	1.75556	1.56567	0.0998652	0.0738132	-0.0892688	-0.564277	0.121425	2.22743	2.07405	0.0997978	-0.0973566
2.07	-0.00880155	-0.0377549	0.11735	0.83887	0.973918	-0.328051	0.553346	0.0477707	-0.259586	-0.358373	0.033154	0.0256835	-4.45709e-05	-0.117736	-0.194728	-0.167948	-1.58363	-0.419739	0.00136458	-9.88808e-05	-0.270377	0.0955286	-0.104294	-0.856727	-0.401933	-0.195613	1.7628	1.55427	0.0998652	0.0738132	-0.142964	-0.566364	0.113597	2.19261	2.06621	0.0997978	-0.0973566
2.08	-0.00231844	-0.0544391	0.100612	0.83777	0.965759	-0.326483	0.54136	0.0777801	-0.249888	-0.431169	0.0251554	0.0256835	-4.45709e-05	-0.0710377	-0.214787	-0.16515	-1.71289	-0.394279	0.00136458	-9.88808e-05	-0.277201	0.110665	-0.0660088	-0.816515	-0.430494	-0.186433	1.76489	1.54246	0.0998652	0.0738132	-0.193117	-0.564866	0.104198	2.15586	2.06699	0.0997978	-0.0973566
2.09	0.000851051	-0.0715732	0.0847787	0.835798	0.957382	-0.325126	0.53311	0.107886	-0.238216	-0.505399	0.0325523	0.0256835	-4.45709e-05	-0.0118197	-0.22976	-0.154997	-1.83291	-0.367823	0.00136458	-9.88808e-05	-0.282832	0.12586	-0.0281636	-0.76765	-0.460212	-0.173051	1.76213	1.53029	0.0998652	0.0738132	-0.239781	-0.55968	0.0929517	2.11741	2.07671	0.0997978	-0.0973566
2.1	0.00116932	-0.0884678	0.0698307	0.833035	0.949492	-0.323982	0.527123	0.137323	-0.224596	-0.579204	0.0551178	0.0256835	-4.45709e-05	0.0591514	-0.239361	-0.13857	-1.94253	-0.340089	0.00136458	-9.88808e-05	-0.28771	0.140428	0.00873419	-0.710121	-0.490816	-0.155196	1.75526	1.51802	0.0998652	0.0738132	-0.283127	-0.55068	0.0793792	2.07772	2.09578	0.0997978	-0.0973566
2.11	-0.000705979	-0.104093	0.055733	0.829508	0.942637	-0.322922	0.521148	0.164925	-0.208975	-0.649694	0.0915731	0.0256835	-4.45709e-05	0.140471	-0.243149	-0.117518	-2.03999	-0.310667	0.00136458	-9.88808e-05	-0.292439	0.153251	0.0439321	-0.644119	-0.521825	-0.132634	1.74547	1.50619	0.0998652	0.0738132	-0.323497	-0.537832	0.0628994	2.03751	2.12448	0.0997978	-0.0973566
2.12	-0.0040517	-0.117099	0.0424456	0.825281	0.936902	-0.321832	0.512583	0.18921	-0.191277	-0.713424	0.139331	0.0256835	-4.45709e-05	0.230122	-0.24065	-0.0939741	-2.1231	-0.279135	0.00136458	-9.88808e-05	-0.297589	0.162869	0.0765091	-0.570207	-0.552501	-0.105326	1.7345	1.49566	0.0998652	0.0738132	-0.361418	-0.521334	0.0430227	1.99772	2.16256	0.0997978	-0.0973566
2.13	-0.00820564	-0.126022	0.0299205	0.820495	0.932186	-0.320786	0.499101	0.208572	-0.171516	-0.767092	0.194659	0.0256835	-4.45709e-05	0.32566	-0.231585	-0.0703537	-2.1895	-0.245241	0.00136458	-9.88808e-05	-0.303445	0.167694	0.10553	-0.489438	-0.58186	-0.0735743	1.72436	1.48746	0.0998652	0.0738132	-0.397528	-0.501732	0.019587	1.95943	2.20888	0.0997978	-0.0973566
2.14	-0.0127409	-0.129528	0.0180978	0.815362	0.928495	-0.319894	0.479122	0.221594	-0.149906	-0.808127	0.253098	0.0256835	-4.45709e-05	0.424434	-0.216137	-0.0490676	-2.237	-0.20908	0.00136458	-9.88808e-05	-0.309865	0.166351	0.130257	-0.403381	-0.608758	-0.038088	1.71715	1.48252	0.0998652	0.0738132	-0.432461	-0.479947	-0.00706381	1.92371	2.26107	0.0997978	-0.0973566
2.15	-0.0174756	-0.12686	0.00687807	0.810147	0.925975	-0.319077	0.451983	0.227284	-0.126903	-0.834947	0.309873	0.0256835	-4.45709e-05	0.523765	-0.195107	-0.0322118	-2.2639	-0.17117	0.00136458	-9.88808e-05	-0.316304	0.15792	0.150325	-0.314042	-0.632048	6.03763e-05	1.71474	1.48135	0.0998652	0.0738132	-0.466732	-0.457179	-0.0360361	1.89154	2.31538	0.0997978	-0.0973566
2.16	-0.0224374	-0.118008	-0.00388816	0.805115	0.924798	-0.318147	0.417811	0.225267	-0.103218	-0.846944	0.360184	0.0256835	-4.45709e-05	0.621045	-0.169896	-0.0212901	-2.26913	-0.132401	0.00136458	-9.88808e-05	-0.321973	0.142158	0.165837	-0.223683	-0.650801	0.0395952	1.71847	1.48376	0.0998652	0.0738132	-0.5007	-0.434706	-0.0660192	1.86368	2.36694	0.0997978	-0.0973566
2.17	-0.0277656	-0.103545	-0.0143974	0.800496	0.925049	-0.317029	0.377269	0.21584	-0.0798079	-0.844317	0.399402	0.0256835	-4.45709e-05	0.71379	-0.142301	-0.0170383	-2.25238	-0.0938444	0.00136458	-9.88808e-05	-0.326043	0.119594	0.177334	-0.134616	-0.664481	0.0792438	1.72906	1.48885	0.0998652	0.0738132	-0.534594	-0.413642	-0.0955332	1.84072	2.41038	0.0997978	-0.0973566
2.18	-0.0336491	-0.0845308	-0.0248536	0.796455	0.926711	-0.315746	0.331273	0.199819	-0.0578532	-0.827909	0.42324	0.0256835	-4.45709e-05	0.799672	-0.114174	-0.0193991	-2.21402	-0.0565368	0.00136458	-9.88808e-05	-0.327824	0.0913865	0.185654	-0.0490243	-0.673042	0.117891	1.74655	1.49516	0.0998652	0.0738132	-0.568528	-0.394758	-0.123181	1.82302	2.44073	0.0997978	-0.0973566
2.19	-0.0401848	-0.0622981	-0.0354306	0.793094	0.929706	-0.314333	0.280814	0.178336	-0.038714	-0.799075	0.427985	0.0256835	-4.45709e-05	0.876582	-0.0871143	-0.0276229	-2.15501	-0.0213141	0.00136458	-9.88808e-05	-0.326847	0.0590913	0.191766	0.0311348	-0.676898	0.154639	1.77043	1.50109	0.0998652	0.0738132	-0.602498	-0.378426	-0.147829	1.8107	2.45453	0.0997978	-0.0973566
2.2	-0.0473483	-0.0383084	-0.0462023	0.790468	0.933932	-0.31283	0.226826	0.152669	-0.0238574	-0.759594	0.4108	0.0256835	-4.45709e-05	0.942671	-0.0622751	-0.0404343	-2.07668	0.0112525	0.00136458	-9.88808e-05	-0.322917	0.0244413	0.196616	0.104152	-0.676813	0.188766	1.7998	1.50537	0.0998652	0.0738132	-0.636335	-0.364677	-0.168687	1.80363	2.45053	0.0997978	-0.0973566
2.21	-0.0549587	-0.013995	-0.0570937	0.788608	0.939264	-0.311301	0.170131	0.124177	-0.0147365	-0.711611	0.370105	0.0256835	-4.45709e-05	0.996411	-0.0403448	-0.0562228	-1.98063	0.0408346	0.00136458	-9.88808e-05	-0.31613	-0.0107678	0.201032	0.168557	-0.673767	0.219638	1.83358	1.50743	0.0998652	0.0738132	-0.669677	-0.353311	-0.185305	1.8014	2.42988	0.0997978	-0.0973566
2.22	-0.0626943	0.00927287	-0.0678704	0.78752	0.945536	-0.309813	0.111471	0.0942892	-0.0125857	-0.65763	0.306004	0.0256835	-4.45709e-05	1.03665	-0.0216369	-0.0732612	-1.86862	0.0672812	0.00136458	-9.88808e-05	-0.306832	-0.0447481	0.205673	0.223121	-0.668837	0.246646	1.87064	1.50753	0.0998652	0.0738132	-0.701991	-0.343993	-0.197567	1.80347	2.39574	0.0997978	-0.0973566
2.23	-0.0701582	0.0302027	-0.0781912	0.787194	0.95253	-0.308419	0.0516469	0.0645009	-0.0181426	-0.600588	0.220676	0.0256835	-4.45709e-05	1.06273	-0.00625214	-0.0899523	-1.74254	0.0905591	0.00136458	-9.88808e-05	-0.295541	-0.0757738	0.21102	0.266888	-0.663101	0.269199	1.90991	1.50663	0.0998652	0.0738132	-0.732642	-0.336319	-0.205678	1.80917	2.35249	0.0997978	-0.0973566
2.24	-0.0769841	0.0475935	-0.0877089	0.78759	0.959959	-0.307158	-0.00828955	0.0363484	-0.0313581	-0.54396	0.118573	0.0256835	-4.45709e-05	1.07457	0.00574328	-0.105061	-1.60446	0.110713	0.00136458	-9.88808e-05	-0.28283	-0.102249	0.217408	0.299222	-0.657569	0.286746	1.95044	1.5061	0.0998652	0.0738132	-0.760998	-0.329848	-0.210166	1.8179	2.30486	0.0997978	-0.0973566
2.25	-0.0829415	0.0603593	-0.0961863	0.788631	0.967466	-0.30604	-0.0668758	0.0113296	-0.0511873	-0.491817	0.00627611	0.0256835	-4.45709e-05	1.07273	0.0141791	-0.117884	-1.45673	0.127835	0.00136458	-9.88808e-05	-0.269231	-0.122807	0.225071	0.31984	-0.653115	0.298813	1.99138	1.50733	0.0998652	0.0738132	-0.786516	-0.324124	-0.211858	1.82912	2.25723	0.0997978	-0.0973566
2.26	-0.087992	0.0676174	-0.103587	0.790193	0.974654	-0.305058	-0.122213	-0.00921128	-0.0755534	-0.448756	-0.108087	0.0256835	-4.45709e-05	1.05845	0.0187251	-0.128316	-1.30209	0.142041	0.00136458	-9.88808e-05	-0.255211	-0.136415	0.234171	0.328833	-0.65042	0.305028	2.03195	1.51137	0.0998652	0.0738132	-0.808793	-0.318704	-0.211809	1.84241	2.21314	0.0997978	-0.0973566
2.27	-0.0922228	0.0688036	-0.110092	0.79213	0.981156	-0.304197	-0.172103	-0.0242366	-0.10154	-0.41963	-0.215837	0.0256835	-4.45709e-05	1.03348	0.0189492	-0.136792	-1.1437	0.153443	0.00136458	-9.88808e-05	-0.2412	-0.142478	0.244783	0.326659	-0.649917	0.305154	2.07144	1.51868	0.0998652	0.0738132	-0.827585	-0.313182	-0.211186	1.85742	2.17504	0.0997978	-0.0973566
2.28	-0.0957575	0.063765	-0.116036	0.794299	0.986717	-0.303416	-0.214342	-0.0331923	-0.125821	-0.409113	-0.308981	0.0256835	-4.45709e-05	0.999859	0.0144923	-0.144125	-0.98522	0.162145	0.00136458	-9.88808e-05	-0.227688	-0.140939	0.256825	0.314115	-0.651758	0.299124	2.10908	1.52911	0.0998652	0.0738132	-0.842793	-0.307213	-0.211114	1.87381	2.14423	0.0997978	-0.0973566
2.29	-0.0986848	0.0527803	-0.121787	0.796563	0.991217	-0.302623	-0.247103	-0.0361666	-0.145278	-0.421158	-0.381449	0.0256835	-4.45709e-05	0.959684	0.005326	-0.151264	-0.830684	0.168246	0.00136458	-9.88808e-05	-0.215317	-0.132357	0.26995	0.292283	-0.655815	0.287078	2.14407	1.54195	0.0998652	0.0738132	-0.854431	-0.300555	-0.212509	1.89119	2.12095	0.0997978	-0.0973566
2.3	-0.100863	0.0366904	-0.127581	0.798792	0.994646	-0.30173	-0.269231	-0.0339268	-0.157686	-0.458448	-0.430088	0.0256835	-4.45709e-05	0.914878	-0.00804307	-0.15898	-0.684339	0.171834	0.00136458	-9.88808e-05	-0.204867	-0.117857	0.283465	0.262431	-0.66171	0.26939	2.17553	1.55617	0.0998652	0.0738132	-0.862591	-0.293116	-0.215954	1.90907	2.10473	0.0997978	-0.0973566
2.31	-0.101953	0.0168361	-0.133386	0.800888	0.997063	-0.30073	-0.280472	-0.0278743	-0.162254	-0.522	-0.455139	0.0256835	-4.45709e-05	0.867063	-0.0244396	-0.167587	-0.550398	0.172977	0.00136458	-9.88808e-05	-0.197209	-0.0990444	0.296314	0.225895	-0.668874	0.246657	2.20253	1.57065	0.0998652	0.0738132	-0.867411	-0.285012	-0.221642	1.92689	2.09466	0.0997978	-0.0973566
2.32	-0.101457	-0.00504322	-0.138832	0.802806	0.998528	-0.299722	-0.281498	-0.0198695	-0.159781	-0.61099	-0.459982	0.0256835	-4.45709e-05	0.817564	-0.0420669	-0.17675	-0.43279	0.171722	0.00136458	-9.88808e-05	-0.19315	-0.0778319	0.307152	0.183949	-0.67662	0.219663	2.2241	1.58441	0.0998652	0.0738132	-0.869039	-0.276617	-0.229388	1.94401	2.08968	0.0997978	-0.0973566
2.33	-0.0988426	-0.0270213	-0.143234	0.804488	0.999086	-0.29888	-0.273766	-0.0119453	-0.152365	-0.722865	-0.450132	0.0256835	-4.45709e-05	0.767533	-0.0587267	-0.185429	-0.334959	0.168146	0.00136458	-9.88808e-05	-0.193258	-0.0562095	0.314512	0.137699	-0.684219	0.18928	2.23934	1.59684	0.0998652	0.0738132	-0.867606	-0.268574	-0.238711	1.95972	2.08859	0.0997978	-0.0973566
